<svg width="22" height="22" viewBox="0 0 22 22" fill="none" xmlns="http://www.w3.org/2000/svg">
<g clip-path="url(#clip0_1_1049)">
<path d="M15.5562 1.77859H6.66327C4.20755 1.77859 2.2168 3.76935 2.2168 6.22507V15.118C2.2168 17.5737 4.20755 19.5645 6.66327 19.5645H15.5562C18.0119 19.5645 20.0027 17.5737 20.0027 15.118V6.22507C20.0027 3.76935 18.0119 1.77859 15.5562 1.77859Z" stroke="#5B5B5B" stroke-width="2" stroke-linecap="round" stroke-linejoin="round"/>
<path d="M14.6667 10.1113C14.7765 10.8514 14.65 11.6073 14.3054 12.2714C13.9608 12.9355 13.4156 13.4741 12.7473 13.8104C12.079 14.1468 11.3216 14.2639 10.5829 14.145C9.84417 14.0262 9.16176 13.6774 8.6327 13.1484C8.10364 12.6193 7.75487 11.9369 7.636 11.1982C7.51713 10.4595 7.63422 9.7021 7.97061 9.03378C8.30699 8.36545 8.84555 7.82022 9.50967 7.47561C10.1738 7.13101 10.9297 7.0046 11.6698 7.11435C12.4247 7.2263 13.1236 7.57808 13.6633 8.11774C14.203 8.65741 14.5548 9.35633 14.6667 10.1113Z" stroke="#5B5B5B" stroke-width="2" stroke-linecap="round" stroke-linejoin="round"/>
<path d="M16.001 5.78043H16.0106" stroke="#5B5B5B" stroke-width="2" stroke-linecap="round" stroke-linejoin="round"/>
</g>
<defs>
<clipPath id="clip0_1_1049">
<rect width="21.3431" height="21.3431" fill="white" transform="translate(0.438477)"/>
</clipPath>
</defs>
</svg>
