<svg width="20" height="17" viewBox="0 0 20 17" fill="none" xmlns="http://www.w3.org/2000/svg">
<path d="M19.5645 0.668122C18.7129 1.26882 17.77 1.72826 16.7721 2.02874C16.2365 1.41292 15.5247 0.976433 14.733 0.778329C13.9412 0.580225 13.1078 0.630056 12.3453 0.921085C11.5828 1.21211 10.928 1.7303 10.4696 2.40555C10.0113 3.08081 9.7713 3.88055 9.78224 4.69663V5.58592C8.21942 5.62644 6.67084 5.27984 5.27441 4.57697C3.87798 3.8741 2.67706 2.83679 1.77859 1.55742C1.77859 1.55742 -1.77859 9.56107 6.22506 13.1182C4.39358 14.3614 2.21181 14.9848 0 14.8968C8.00365 19.3433 17.7859 14.8968 17.7859 4.66995C17.7851 4.42224 17.7613 4.17514 17.7147 3.93183C18.6224 3.03675 19.2629 1.90665 19.5645 0.668122Z" fill="#5B5B5B"/>
</svg>
