<svg width="24" height="16" viewBox="0 0 24 16" fill="none" xmlns="http://www.w3.org/2000/svg">
<path fill-rule="evenodd" clip-rule="evenodd" d="M1.70711 0.292893C1.31658 -0.0976311 0.683417 -0.0976311 0.292893 0.292893C-0.0976311 0.683417 -0.0976311 1.31658 0.292893 1.70711L6.87868 8.29289C8.05025 9.46447 9.94975 9.46447 11.1213 8.29289L12.2929 7.12132C12.6834 6.7308 13.3166 6.7308 13.7071 7.12132L19.2929 12.7071L17.7071 14.2929C17.4158 14.5842 17.5821 15.0832 17.9899 15.1414L23.34 15.9057C23.67 15.9529 23.9529 15.67 23.9057 15.34L23.1414 9.98995C23.0832 9.58207 22.5842 9.41576 22.2929 9.70711L20.7071 11.2929L15.1213 5.70711C13.9497 4.53553 12.0503 4.53553 10.8787 5.70711L9.70711 6.87868C9.31658 7.2692 8.68342 7.2692 8.29289 6.87868L1.70711 0.292893Z" fill="#FF4C61"/>
</svg>
