<svg width="24" height="23" viewBox="0 0 24 23" fill="none" xmlns="http://www.w3.org/2000/svg">
<path fill-rule="evenodd" clip-rule="evenodd" d="M12.2381 2.00025C10.2906 2.01889 8.52631 3.02304 7.94868 4.75593C7.32416 6.62951 7.8136 8.07716 8.57472 9.54085C8.74139 9.86137 8.91602 10.1731 9.09634 10.4951C9.12619 10.5483 9.15619 10.6019 9.18633 10.6558C9.39451 11.0282 9.60866 11.4163 9.7986 11.8088C10.1762 12.5893 10.5 13.4686 10.5 14.4397C10.5 15.6953 9.64911 16.5499 8.82232 17.1269C8.05505 17.6624 7.07055 18.1222 6.17034 18.5427C6.08758 18.5813 6.00554 18.6196 5.92443 18.6577C4.90758 19.1343 4.01203 19.5743 3.36564 20.0793C2.73082 20.5752 2.5 21.0044 2.5 21.4397C2.5 21.992 2.05228 22.4397 1.5 22.4397C0.947715 22.4397 0.5 21.992 0.5 21.4397C0.5 20.125 1.26918 19.1792 2.13436 18.5032C2.98797 17.8364 4.09242 17.3076 5.07557 16.8467C5.14498 16.8142 5.21379 16.782 5.28198 16.7501C6.23217 16.3054 7.05983 15.9181 7.67768 15.4869C8.35089 15.017 8.5 14.6841 8.5 14.4397C8.5 13.9108 8.32377 13.3526 7.99828 12.6799C7.83666 12.3459 7.64846 12.0035 7.44062 11.6318C7.41202 11.5806 7.383 11.5288 7.35367 11.4765C7.17407 11.1559 6.98252 10.814 6.80028 10.4636C5.9364 8.80224 5.17584 6.74989 6.05132 4.12347C6.97369 1.35636 9.68077 0.0246351 12.219 0.000339316C14.7671 -0.0240513 17.4961 1.2657 18.4487 4.12349C19.3384 6.79284 18.4079 8.87032 17.42 10.5168C17.193 10.8951 16.9842 11.2201 16.7885 11.5248C16.5249 11.9351 16.2851 12.3084 16.0565 12.7253C15.6882 13.3969 15.5 13.9386 15.5 14.4397C15.5 14.6469 15.6042 14.9167 16.2606 15.3065C16.7843 15.6174 17.4439 15.8796 18.2222 16.1888C18.4318 16.2721 18.6499 16.3588 18.8764 16.4508C19.8763 16.857 21.0113 17.3597 21.8949 18.1052C22.8202 18.8859 23.5 19.9606 23.5 21.4397C23.5 21.992 23.0523 22.4397 22.5 22.4397C21.9477 22.4397 21.5 21.992 21.5 21.4397C21.5 20.6689 21.1798 20.1187 20.6051 19.6338C19.9887 19.1137 19.1237 18.7101 18.1236 18.3038C17.9437 18.2307 17.7569 18.1567 17.5667 18.0813C16.7707 17.766 15.9136 17.4264 15.2394 17.0261C14.3958 16.5252 13.5 15.7324 13.5 14.4397C13.5 13.4408 13.8743 12.545 14.3029 11.7636C14.5478 11.3171 14.8682 10.8148 15.1729 10.3373C15.364 10.0377 15.549 9.74788 15.705 9.48779C16.5921 8.00932 17.1616 6.5868 16.5513 4.75591C15.9467 2.94195 14.1757 1.9817 12.2381 2.00025Z" fill="#6F52ED"/>
</svg>
